<?xml version="1.0" encoding="UTF-8"?>
<svg width="245px" height="244px" viewBox="0 0 245 244" version="1.1" xmlns="http://www.w3.org/2000/svg" xmlns:xlink="http://www.w3.org/1999/xlink">
    <title>画板</title>
    <g id="画板" stroke="none" stroke-width="1" fill="none" fill-rule="evenodd">
        <g id="编组-2" transform="translate(19, 4)">
            <path d="M207.86,131.640085 C207.86,74.2200855 161.35,27.7100855 103.93,27.7100855 C46.51,27.7100855 0,74.2300855 0,131.640085 C0,189.050085 46.52,235.570085 103.93,235.570085 C161.34,235.570085 207.86,189.050085 207.86,131.640085" id="路径" fill="#C6000B" fill-rule="nonzero"></path>
            <path d="M206.41,131.640085 C206.41,75.0600855 160.49,29.1600855 103.93,29.1600855 C47.37,29.1600855 1.58,75.0600855 1.58,131.640085 C1.58,188.220085 47.37,233.990085 103.93,233.990085 C160.49,233.990085 206.41,188.200085 206.41,131.640085" id="路径" fill="#FFFFFF" fill-rule="nonzero"></path>
            <path d="M203.87,131.640085 C203.87,76.5200855 159.06,31.8200855 103.95,31.8200855 C48.84,31.8200855 4.13,76.5200855 4.13,131.640085 C4.13,186.760085 48.83,231.450085 103.95,231.450085 C159.07,231.450085 203.87,186.750085 203.87,131.640085" id="路径" fill="#C6000B" fill-rule="nonzero"></path>
            <path d="M17.82,110.440085 L18.42,107.910085 L20.73,108.390085 L19.28,113.960085 L12.49,112.140085 C12.49,111.290085 12.49,110.210085 12.73,108.990085 C12.85,108.870085 12.85,108.750085 12.85,108.630085 C12.97,107.770085 13.21,106.930085 13.45,105.830085 C14.79,101.840085 17.7,100.390085 22.06,101.470085 C26.43,102.680085 28.24,105.470085 27.39,109.590085 C26.31,113.820085 24.24,115.520085 21.34,114.670085 L22.19,111.650085 C23.75,112.010085 24.73,111.400085 25.21,109.600085 C25.83,107.050085 24.49,105.350085 21.21,104.510085 C18.06,103.650085 16.12,104.510085 15.39,106.930085 C15.15,107.770085 15.04,108.630085 14.91,109.710085 L17.82,110.450085 L17.82,110.440085 Z" id="路径" fill="#FFFFFF" fill-rule="nonzero"></path>
            <path d="M16.72,126.190085 C20.11,126.670085 22.05,125.830085 22.29,123.520085 C22.66,121.100085 21.09,119.780085 17.81,119.290085 C14.42,118.810085 12.6,119.790085 12.24,122.080085 C12,124.380085 13.44,125.720085 16.71,126.200085 M16.35,129.350085 C11.74,128.510085 9.68,126.080085 10.18,121.720085 C10.91,117.470085 13.58,115.650085 18.17,116.150085 C22.9,116.990085 24.96,119.550085 24.46,123.780085 C23.74,128.020085 21.08,129.830085 16.35,129.350085 Z" id="形状" fill="#FFFFFF" fill-rule="nonzero"></path>
            <path d="M16.36,141.330085 C19.75,141.330085 21.45,140.110085 21.33,137.810085 C21.33,135.390085 19.63,134.300085 16.24,134.300085 C12.84,134.440085 11.15,135.640085 11.15,137.940085 C11.27,140.250085 12.97,141.450085 16.36,141.330085 M16.36,144.480085 C11.63,144.480085 9.34,142.300085 9.1,137.940085 C9.22,133.700085 11.52,131.410085 16.13,131.160085 C20.84,131.290085 23.4,133.470085 23.52,137.820085 C23.52,142.070085 21.1,144.370085 16.37,144.490085 L16.36,144.480085 Z" id="形状" fill="#FFFFFF" fill-rule="nonzero"></path>
            <path d="M21.81,148.960085 L12.72,150.900085 L13.1,152.360085 C13.58,155.150085 15.39,156.120085 18.43,155.390085 C21.58,154.900085 22.78,153.210085 22.18,150.540085 L21.81,148.970085 L21.81,148.960085 Z M9.94,148.480085 L23.51,145.700085 L24.47,150.290085 C25.31,154.770085 23.62,157.560085 19.02,158.530085 C14.54,159.500085 11.87,157.570085 10.89,153.070085 L9.93,148.480085 L9.94,148.480085 Z" id="形状" fill="#FFFFFF" fill-rule="nonzero"></path>
            <path d="M27.26,166.400085 L19.15,170.770085 L19.88,172.100085 C21.08,174.650085 23.14,175.010085 25.81,173.550085 C28.59,172.100085 29.32,170.160085 27.99,167.740085 L27.26,166.400085 L27.26,166.400085 Z M15.76,169.310085 L27.88,162.760085 L30.18,166.870085 C32.36,170.990085 31.39,174.150085 27.4,176.330085 C23.27,178.510085 20.13,177.550085 17.94,173.420085 L15.76,169.300085 L15.76,169.310085 Z" id="形状" fill="#FFFFFF" fill-rule="nonzero"></path>
            <path d="M35.02,185.780085 C37.68,183.600085 38.18,181.660085 36.71,179.850085 C35.13,178.030085 33.08,178.280085 30.53,180.450085 C27.99,182.640085 27.38,184.580085 28.95,186.400085 C30.41,188.220085 32.47,187.980085 35.01,185.780085 M37.07,188.210085 C33.43,191.110085 30.16,190.990085 27.37,187.730085 C24.59,184.460085 24.95,181.180085 28.46,178.030085 C32.22,175.130085 35.49,175.250085 38.27,178.510085 C40.94,181.780085 40.58,185.060085 37.07,188.210085 Z" id="形状" fill="#FFFFFF" fill-rule="nonzero"></path>
            <path d="M47.61,187.600085 C50.39,190.020085 50.88,192.570085 48.95,195.110085 L46.51,193.050085 C47.61,191.590085 47.49,190.380085 46.15,189.290085 C44.83,188.320085 43.13,189.050085 40.82,191.470085 C38.88,194.010085 38.4,195.950085 39.62,197.050085 C40.94,198.140085 42.28,198.020085 43.37,196.810085 L45.79,198.750085 C43.74,201.040085 41.2,201.040085 38.28,198.630085 C35.49,196.210085 35.49,193.060085 38.4,189.420085 C41.55,185.910085 44.57,185.310085 47.6,187.600085" id="路径" fill="#FFFFFF" fill-rule="nonzero"></path>
            <polygon id="路径" fill="#FFFFFF" fill-rule="nonzero" points="50.76 193.650085 51.98 191.720085 61.42 197.890085 60.21 199.720085 56.69 197.540085 50.4 207.230085 47.85 205.530085 54.16 195.840085"></polygon>
            <path d="M67.73,208.920085 C69.29,205.900085 69.05,203.830085 67,202.750085 C64.82,201.780085 63.01,202.750085 61.55,205.770085 C59.97,208.680085 60.21,210.740085 62.27,211.830085 C64.45,212.910085 66.14,211.960085 67.73,208.920085 M70.51,210.380085 C68.33,214.490085 65.3,215.590085 61.43,213.770085 C57.55,211.710085 56.7,208.560085 58.64,204.310085 C60.95,200.200085 64.1,199.000085 67.98,200.930085 C71.73,202.990085 72.57,206.140085 70.51,210.370085 L70.51,210.380085 Z" id="形状" fill="#FFFFFF" fill-rule="nonzero"></path>
            <path d="M76.93,207.590085 L75.84,211.090085 L78.15,211.820085 C79.47,212.300085 80.33,211.820085 80.69,210.740085 C81.05,209.640085 80.57,208.800085 79.35,208.430085 L76.93,207.590085 L76.93,207.590085 Z M75.11,213.280085 L73.29,218.610085 L70.5,217.630085 L74.75,204.550085 L80.44,206.370085 C83.46,207.350085 84.55,209.050085 83.83,211.220085 C83.21,212.920085 82.01,213.760085 80.07,213.640085 C81.52,214.120085 82.01,215.460085 81.52,217.390085 C81.4,217.510085 81.4,217.750085 81.4,217.750085 C81.4,217.860085 81.28,218.000085 81.28,218.240085 C81.04,219.680085 80.92,220.660085 81.16,221.140085 L78.01,220.180085 C78.14,219.080085 78.38,217.870085 78.62,216.420085 C78.98,215.210085 78.74,214.620085 78.01,214.240085 L75.11,213.280085 L75.11,213.280085 Z" id="形状" fill="#FFFFFF" fill-rule="nonzero"></path>
            <polygon id="路径" fill="#FFFFFF" fill-rule="nonzero" points="127.92 221.160085 125.14 222.000085 121.26 208.680085 124.05 207.820085 125.62 213.160085 130.58 211.690085 129.14 206.380085 131.91 205.640085 135.92 218.860085 133.01 219.700085 131.32 213.890085 126.23 215.330085"></polygon>
            <path d="M140.64,211.100085 L144.15,209.280085 L139.79,204.910085 L140.64,211.100085 L140.64,211.100085 Z M141.24,216.550085 L138.7,217.890085 L137.11,203.220085 L140.26,201.660085 L150.68,211.820085 L148.02,213.280085 L145.83,211.100085 L140.99,213.520085 L141.23,216.560085 L141.24,216.550085 Z" id="形状" fill="#FFFFFF" fill-rule="nonzero"></path>
            <path d="M157,198.870085 C154.93,196.090085 152.99,195.480085 151.05,196.930085 C149.23,198.260085 149.35,200.320085 151.29,203.100085 C153.36,205.770085 155.3,206.370085 157.24,205.040085 C159.04,203.600085 158.93,201.540085 157,198.870085 M159.54,196.930085 C162.2,200.800085 161.84,203.950085 158.45,206.610085 C154.93,209.160085 151.78,208.670085 148.88,205.030085 C146.08,201.160085 146.46,197.890085 149.84,195.230085 C153.23,192.690085 156.51,193.290085 159.54,196.920085 L159.54,196.930085 Z" id="形状" fill="#FFFFFF" fill-rule="nonzero"></path>
            <polygon id="路径" fill="#FFFFFF" fill-rule="nonzero" points="172.62 192.930085 169.22 190.020085 158.94 187.720085 161.23 185.060085 167.89 186.870085 164.86 180.570085 166.8 178.280085 171.04 187.720085 174.57 190.630085"></polygon>
            <polygon id="路径" fill="#FFFFFF" fill-rule="nonzero" points="168.74 174.880085 180.38 182.510085 178.68 184.930085 167.04 177.420085"></polygon>
            <path d="M176.38,159.010085 C177.59,156.230085 179.53,155.260085 182.07,156.110085 L180.99,158.770085 C179.65,158.410085 178.68,158.890085 178.2,160.110085 C177.72,161.560085 178.08,162.410085 179.05,162.900085 C180.01,163.250085 180.85,162.900085 181.71,161.440085 C181.71,161.310085 181.83,161.310085 181.83,161.200085 C181.83,161.200085 181.95,161.070085 182.07,160.960085 C183.89,158.170085 185.7,157.070085 187.4,157.810085 C190.06,159.010085 190.79,161.440085 189.46,165.070085 C188.12,168.460085 186.08,169.550085 183.17,168.330085 L184.25,165.410085 C185.7,166.150085 186.8,165.670085 187.52,164.330085 C188.12,162.510085 187.88,161.430085 186.8,161.060085 C185.94,160.580085 184.98,161.190085 184.13,162.630085 C183.89,162.880085 183.77,163.120085 183.77,163.230085 C181.95,165.780085 180.13,166.750085 178.43,166.020085 C175.9,164.810085 175.16,162.500085 176.38,158.990085" id="路径" fill="#FFFFFF" fill-rule="nonzero"></path>
            <polygon id="路径" fill="#FFFFFF" fill-rule="nonzero" points="193.45 152.470085 192.97 155.380085 179.28 153.070085 179.77 150.170085 185.22 151.130085 186.06 145.940085 180.73 144.960085 181.21 142.060085 194.79 144.360085 194.29 147.260085 188.36 146.300085 187.4 151.510085"></polygon>
            <polygon id="路径" fill="#FFFFFF" fill-rule="nonzero" points="195.15 140.720085 181.33 140.000085 181.83 130.780085 184.13 130.910085 183.77 137.210085 187.04 137.330085 187.28 131.400085 189.58 131.520085 189.34 137.450085 192.97 137.690085 193.33 131.160085 195.64 131.270085"></polygon>
            <polygon id="路径" fill="#FFFFFF" fill-rule="nonzero" points="194.54 115.160085 194.9 119.400085 184 125.820085 195.52 124.870085 195.75 127.640085 181.95 128.840085 181.46 124.490085 191.88 118.200085 180.98 119.160085 180.74 116.380085"></polygon>
            <path d="M185.82,103.410085 L186.8,105.950085 L184.49,106.680085 L182.69,101.350085 L189.22,99.0400855 C189.72,99.6500855 190.2,100.620085 190.79,101.710085 C190.79,101.830085 190.79,101.950085 190.91,102.070085 C191.27,102.810085 191.64,103.650085 191.88,104.740085 C193.08,108.740085 191.64,111.650085 187.39,113.210085 C183.03,114.670085 180.12,113.350085 178.3,109.580085 C176.85,105.470085 177.58,102.920085 180.48,101.830085 L181.46,104.860085 C180,105.340085 179.52,106.560085 180.24,108.250085 C181.08,110.670085 183.16,111.390085 186.31,110.310085 C189.45,109.090085 190.67,107.280085 189.81,104.860085 C189.45,104.130085 189.09,103.290085 188.61,102.310085 L185.82,103.400085 L185.82,103.410085 Z" id="路径" fill="#FFFFFF" fill-rule="nonzero"></path>
            <path d="M177.1,131.640085 C177.1,91.3000855 144.4,58.5900855 103.93,58.5900855 C63.46,58.5900855 30.89,91.2900855 30.89,131.640085 C30.89,171.990085 63.6,204.670085 103.93,204.670085 C144.26,204.670085 177.1,171.970085 177.1,131.640085" id="路径" fill="#FFFFFF" fill-rule="nonzero"></path>
            <path d="M33.44,131.640085 C33.44,92.6300855 65.06,61.1400855 103.94,61.1400855 L103.94,62.8400855 C84.93,62.8400855 67.72,70.4700855 55.25,82.9300855 C42.77,95.4200855 35.15,112.610085 35.15,131.640085 C35.15,150.670085 42.78,167.850085 55.25,180.330085 C67.73,192.810085 84.93,200.430085 103.94,200.430085 C122.95,200.430085 140.17,192.800085 152.63,180.330085 C165.11,167.850085 172.75,150.650085 172.75,131.640085 C172.75,112.630085 165.11,95.4200855 152.63,82.9300855 C140.16,70.4700855 122.96,62.8400855 103.94,62.8400855 L103.94,61.1400855 C142.95,61.1400855 174.44,92.6300855 174.44,131.640085 C174.44,170.650085 142.94,202.130085 103.94,202.130085 C64.94,202.130085 33.44,170.630085 33.44,131.640085" id="路径" fill="#C6000B" fill-rule="nonzero"></path>
            <polygon id="路径" fill="#FFFFFF" points="116.05 58.2300855 107.57 22.2600855 72.45 13.2900855 52.09 34.1300855 41.44 47.3300855 45.68 80.4000855 51.13 90.1000855 99.94 91.3100855 121.14 75.5600855"></polygon>
            <path d="M113.88,75.0700855 C112.06,75.0700855 110.01,76.0400855 110.01,75.7900855 C110.11,74.3500855 110.25,72.8900855 110.25,71.4300855 C110.25,70.7100855 110.01,69.7400855 110.12,69.1200855 C110.12,68.4000855 111.34,67.3200855 112.07,67.4400855 C112.91,67.5600855 112.67,67.8000855 115.11,70.2300855 C117.15,72.4000855 116.8,75.0600855 113.89,75.0600855 M109.04,73.6000855 C109.04,74.2000855 109.04,74.8200855 108.8,75.3000855 C108.56,76.2800855 107.95,76.8700855 106.87,77.6000855 C105.17,78.6900855 103.23,79.6700855 101.3,80.3900855 C99.6,80.9900855 97.91,81.6100855 96.09,81.6100855 C94.27,81.7300855 92.94,81.7300855 91.36,80.9900855 C90.04,80.2700855 88.34,79.2900855 87.85,77.8400855 C87.49,76.2800855 87.85,73.8500855 88.69,72.5200855 C89.18,71.5600855 90.88,70.7100855 91.48,69.9800855 C92.08,69.3800855 91.74,69.2600855 92.08,68.5400855 C92.08,68.2900855 92.32,68.0500855 92.69,67.6900855 C93.05,67.2000855 94.01,66.8500855 94.75,66.7200855 C94.75,66.7200855 94.63,66.7200855 94.63,66.8500855 C94.87,66.8500855 94.99,66.8500855 94.99,66.9600855 C94.99,66.9600855 94.75,67.1000855 94.39,67.1000855 C94.15,67.4600855 94.01,67.9400855 94.27,68.4200855 C95.23,69.9900855 98.03,69.6300855 99.6,69.1400855 C101.3,68.5500855 102.5,68.6600855 101.3,69.9900855 C100.8,70.4900855 100.2,70.8400855 99.6,71.0900855 C98.51,71.6900855 97.54,72.1900855 96.93,73.0300855 C99.11,73.6300855 100.45,72.7900855 101.54,72.2900855 C103.96,71.2100855 104.82,69.2700855 107.23,69.1400855 C109.17,69.1400855 109.05,72.4200855 109.05,73.6300855 L109.04,73.6000855 Z M87.48,67.3100855 C87.24,67.7900855 86.4,69.1100855 85.78,68.6300855 C85.18,68.1500855 85.18,67.6700855 85.42,67.1700855 C86.02,65.9700855 88.57,64.9900855 87.48,67.3000855 L87.48,67.3100855 Z M96.68,65.0000855 C94.74,65.1300855 92.56,66.8300855 92.07,67.0800855 C91.59,67.3200855 90.86,67.1800855 90.37,66.8300855 C87.59,65.2500855 91.96,62.7000855 93.52,62.7000855 C94.37,62.7000855 95.83,62.8200855 96.43,63.4300855 C96.55,63.5400855 96.67,63.6700855 96.79,63.6700855 C97.03,63.6700855 97.39,63.7900855 97.64,63.9100855 L98,64.6400855 C98,64.6400855 97.88,64.5200855 97.52,64.4000855 C98,65.0000855 97.76,65.0000855 96.66,65.0000855 L96.68,65.0000855 Z M81.67,66.3400855 C80.57,68.2800855 81.3,68.8800855 80.33,69.3700855 C78.63,70.2300855 76.09,71.3100855 74.52,71.0700855 C73.18,70.9500855 74.88,70.8200855 72.33,69.9700855 C69.79,69.1200855 65.8,69.7300855 65.44,69.7300855 C65.92,69.9700855 68.22,69.3700855 68.35,70.7000855 C63.26,70.8100855 60.83,71.4200855 62.05,75.0500855 C60,75.7700855 58.78,76.8700855 57.44,78.5600855 C57.44,77.3400855 57.8,76.0200855 58.42,75.0500855 C58.06,74.9400855 57.08,75.6500855 56.84,76.0200855 C54.55,78.2000855 56.84,82.1900855 52.49,81.7100855 C51.16,81.5900855 49.34,80.3700855 49.22,79.1600855 C49.22,78.6800855 50.66,76.5000855 52.24,75.0400855 C53.69,73.7100855 55.15,73.2300855 55.15,73.1000855 C55.15,73.1000855 53.58,73.3400855 52.24,74.1800855 C50.43,75.2800855 48.73,77.2100855 48.49,77.2100855 C46.79,78.4200855 46.43,73.0900855 46.55,74.4300855 C46.68,75.1500855 46.92,73.3300855 46.31,71.0400855 C45.47,68.0100855 45.09,65.9500855 43.89,61.8400855 C43.04,58.8000855 43.64,53.8400855 44.49,50.8000855 C44.99,48.7500855 48.73,36.1500855 56.85,31.7900855 C58.91,30.5700855 61.58,29.6100855 64,29.4900855 C66.42,29.2500855 68.85,29.0000855 71.14,28.5200855 C73.44,28.0400855 74.3,27.5600855 78.89,25.7200855 C83.26,24.0400855 84.46,25.1200855 88.96,25.1200855 C93.46,25.1200855 96.23,29.9700855 100.96,30.4500855 C105.07,30.8100855 108.83,33.2400855 106.77,38.0800855 C104.71,42.6900855 105.91,43.7700855 105.31,48.1400855 C104.71,52.3700855 102.89,49.9600855 102.16,51.2900855 C101.68,52.1300855 102.89,53.7100855 102.04,54.4400855 C100.83,55.2800855 100.96,53.8200855 98.77,53.9500855 C97.44,54.0700855 96.24,56.1200855 92.35,57.1000855 C89.69,57.7000855 88.37,58.9200855 87.64,59.6400855 C86.43,60.7400855 89.46,60.7400855 90.42,60.2600855 C92.25,59.2900855 94.55,58.8000855 95.03,59.2900855 C95.64,60.0300855 91.03,60.8700855 90.55,61.1100855 C86.54,62.0800855 82.55,64.7400855 81.71,66.3200855 L81.67,66.3400855 Z M83.6,67.9200855 C83.24,68.6400855 82.63,68.6400855 82.63,68.2800855 C82.63,66.8400855 84.08,65.4900855 84.08,65.4900855 C84.08,65.4900855 83.84,67.3200855 83.6,67.9200855 Z M76.57,75.9100855 L76.57,76.4000855 L76.45,76.4000855 C76.45,76.5200855 76.45,76.6400855 76.33,76.7700855 L76.21,76.7700855 L76.21,76.8800855 C76.09,77.0000855 75.97,77.1200855 75.85,77.2400855 C75.6833333,77.2400855 75.56,77.2000855 75.48,77.1200855 L75.48,76.6400855 C75.36,76.2800855 75.48,75.4300855 75.48,74.9500855 C75.48,74.8300855 75.6,74.7000855 75.6,74.7000855 L75.72,74.7000855 L75.72,74.5800855 L75.85,74.5800855 C75.85,74.5800855 75.97,74.5800855 76.09,74.4600855 L76.33,74.4600855 L76.57,74.8200855 L76.57,75.0600855 C76.57,75.3000855 76.57,75.5400855 76.69,75.9000855 L76.57,75.9000855 L76.57,75.9100855 Z M70.88,71.9200855 C70.88,71.5600855 71.12,71.5600855 71.36,71.5600855 L71.6,71.5600855 L71.6,71.4400855 C71.85,71.4400855 71.98,71.4400855 72.08,71.5600855 C72.08,71.6700855 72.21,71.6700855 72.21,71.8000855 C72.21,71.9300855 72.21,72.0400855 72.08,72.1800855 C71.72,72.2800855 71.48,72.1800855 71.12,72.1800855 C71.12,72.1800855 71,72.0500855 70.88,72.0500855 L70.88,71.9300855 L70.88,71.9200855 Z M73.66,85.2500855 C72.82,90.5700855 69.3,92.1600855 64.58,93.2400855 C59.86,94.3400855 58.52,93.6000855 57.67,93.3600855 C56.94,93.2400855 55.37,93.2400855 53.91,91.4200855 C53.19,90.5700855 51.49,87.7900855 50.89,86.8300855 C48.83,82.8200855 53.31,84.2800855 55.61,85.9700855 C57.55,86.0900855 56.47,83.4400855 57.79,81.0000855 C58.65,79.4300855 59.62,79.0600855 60.95,78.9400855 C60.87,78.8600855 60.83,78.7800855 60.83,78.7000855 C60.83,78.3400855 61.33,78.1000855 61.93,78.1000855 C62.53,78.1000855 63.02,78.3400855 63.02,78.7000855 L62.89,78.8200855 L63.02,78.8200855 C67.13,78.5800855 64.59,77.1200855 67.13,77.3600855 C67.86,77.3600855 68.21,77.6000855 69.07,77.2400855 C69.67,77.0000855 70.39,76.6400855 71.01,76.2800855 C71.73,75.9000855 72.59,74.9400855 73.31,75.9000855 C73.79,76.5100855 73.79,77.6000855 73.92,78.3300855 C73.92,79.1700855 74.03,80.0200855 74.16,80.7500855 C74.28,82.3300855 73.92,83.6600855 73.66,85.2400855 L73.66,85.2500855 Z M121.99,95.9000855 C122.47,95.5600855 123.33,95.7900855 123.56,96.2700855 C123.68,96.6300855 123.44,96.9900855 123.44,97.3500855 C123.44,98.4400855 123.81,99.4200855 123.08,100.380085 C122.84,100.860085 121.63,102.320085 121.63,102.320085 C121.63,102.320085 121.51,101.220085 121.39,100.620085 C121.39,100.020085 121.03,99.2800855 121.03,98.5600855 C121.03,97.5800855 121.39,96.3800855 121.99,95.8900855 L121.99,95.9000855 Z M119.57,132.850085 C121.26,130.920085 123.44,128.740085 125.14,126.680085 C126.24,125.460085 128.65,121.710085 129.75,120.620085 C133.01,117.000085 136.16,110.320085 136.16,110.320085 C136.16,110.320085 136.04,111.060085 135.68,112.260085 C136.28,110.930085 136.52,111.060085 136.52,108.150085 C136.52,107.310085 135.8,101.140085 134.22,99.9200855 C131.31,97.2500855 130.11,95.1900855 131.07,92.4100855 C132.16,89.3800855 135.68,80.6600855 137.38,71.5700855 C138.1,67.8100855 138.96,61.8800855 139.55,58.2500855 C142.95,38.3900855 136.52,28.3300855 134.84,25.5300855 C132.4,21.3000855 130.11,19.0000855 124.9,15.7300855 C124.9,11.2400855 109.03,-1.2399145 94.86,0.100085495 C86.99,0.830085495 87.47,2.0500855 83.24,1.4400855 C75,0.100085495 67.85,4.1000855 63.85,6.5300855 C61.55,7.9900855 57.92,13.2000855 50.89,15.1300855 C41.93,17.7900855 40.35,25.2900855 37.93,32.0800855 C36.23,36.9300855 34.66,37.4100855 33.32,40.1900855 C31.86,43.1000855 30.53,49.5300855 32.46,53.0400855 C34.4,56.5500855 30.88,57.8800855 33.32,64.4200855 C34.53,67.8100855 35.01,66.0000855 37.55,72.4200855 C39.37,77.1400855 42.88,77.1400855 44.46,80.6500855 C45.06,81.9800855 46.52,82.9500855 47.5,84.0500855 C48.34,85.0100855 50.77,89.5000855 51.14,90.1000855 C51.86,91.1900855 52.83,91.9300855 53.67,92.7700855 C54.53,93.3700855 55.37,93.8700855 56.34,94.2100855 C60.22,95.9000855 64.58,94.3400855 65.19,94.2100855 C66.75,93.7300855 68.45,93.2500855 69.9,92.7700855 C71,92.4100855 72.32,91.4300855 73.06,90.5800855 C73.42,90.1000855 73.66,89.8500855 73.91,89.2500855 C74.63,88.1600855 75.24,86.8400855 75.47,85.5000855 C75.59,84.7700855 75.59,84.0500855 75.71,83.3200855 C75.84,82.5800855 75.84,81.8700855 76.08,81.1300855 C76.56,79.8000855 76.92,78.4700855 77.53,77.2600855 C77.89,76.3000855 79.1,75.3200855 80.31,75.5600855 C81.15,75.8000855 82.61,77.1400855 83.22,77.7500855 C83.46,78.1100855 86.37,80.6500855 87.21,82.1100855 C87.69,82.9500855 87.33,84.2900855 88.66,85.0100855 C90.36,86.1000855 91.21,85.6200855 91.71,85.7500855 C93.27,85.9900855 94.85,88.1700855 94.24,89.5000855 C92.66,92.4100855 90.97,89.0200855 87.81,90.3400855 C84.91,91.6800855 86.37,93.4900855 83.82,94.9500855 C83.58,95.0700855 83.09,95.6700855 83.09,95.6700855 C83.09,95.6700855 84.05,97.2500855 86.61,94.9500855 C88.91,93.0100855 93.87,94.5900855 96.89,93.4900855 C101.87,91.8000855 99.56,90.1000855 99.56,87.5600855 C99.56,86.9400855 97.5,87.0800855 96.41,86.7100855 C94.35,85.8700855 91.93,84.9000855 92.66,83.8100855 C93.4,82.6000855 96.41,83.0800855 97.51,82.9600855 C99.57,82.6000855 101.02,81.8800855 102.96,81.1500855 C104.16,80.6700855 105.74,79.8200855 106.95,79.4500855 C108.15,79.2100855 114.1,77.0300855 115.08,79.2100855 C117.85,86.3500855 110.83,86.1200855 112.16,90.9600855 C112.76,93.0200855 113.38,93.1400855 114.46,95.5700855 C115.56,98.1000855 115.31,100.170085 116.52,99.3000855 C117.6,98.4600855 118.95,97.3700855 118.1,102.580085 C117.74,104.640085 115.8,106.090085 114.94,108.030085 C114.1,110.080085 115.08,113.370085 113.25,115.890085 C111.31,119.040085 109.5,120.380085 106.72,123.170085 C103.09,126.690085 99.93,126.690085 97.88,127.160085 C95.58,127.640085 92.55,127.760085 91.81,127.640085 C89.51,127.400085 93.4,130.190085 95.58,130.920085 C98.96,132.010085 98,134.910085 99.57,136.010085 C102.35,138.070085 105.02,136.610085 108.16,136.610085 C111.3,136.610085 113.25,137.590085 114.23,138.190085 C116.89,135.640085 118.96,133.590085 119.56,132.860085 L119.57,132.850085 Z" id="形状" fill="#231815"></path>
            <path d="M65.42,69.3800855 C65.18,69.1300855 64.82,69.2600855 64.58,69.2600855 C64.21,69.2600855 64.08,68.7800855 63.85,68.7800855 C63.12,68.7800855 62.27,68.5400855 62.03,68.4100855 C61.67,68.2900855 61.31,68.2900855 60.95,68.2900855 L59.36,68.2900855 C59.12,68.2900855 58.76,68.1700855 58.51,68.4100855 C58.43,68.5700855 58.31,68.6934188 58.15,68.7800855 C57.55,68.7800855 57.31,69.2600855 57.31,69.3800855 C57.18,69.3800855 56.58,69.8600855 56.34,70.1000855 C56.23,70.3400855 55.97,70.7100855 55.97,70.9500855 C55.73,71.1900855 55.38,71.5500855 55.13,71.7900855 C55.25,71.9100855 55.38,71.9100855 55.63,71.9100855 C56.83,71.9100855 58.04,70.9500855 60.58,70.3300855 C61.8,70.0900855 63.98,70.4600855 65.07,69.8500855 C65.19,69.8500855 65.32,69.7300855 65.43,69.7300855 L65.43,69.6100855 L65.43,69.7300855 C65.55,69.6100855 65.55,69.4900855 65.43,69.3700855" id="路径" fill="#231815"></path>
            <path d="M69.18,78.9500855 C68.82,78.8300855 68.2,78.9500855 67.72,79.3100855 C67.36,79.5500855 66.88,79.7900855 66.5,80.0500855 C66.14,80.2900855 65.9,80.7700855 65.54,81.0100855 C65.29,81.2500855 63.84,81.9900855 63.61,82.3400855 C63.24,83.5400855 66.51,81.7300855 66.99,81.4900855 C67.73,81.1300855 68.69,80.7700855 69.06,79.9100855 C69.42,79.4300855 69.3,79.0700855 69.18,78.9500855" id="路径" fill="#231815"></path>
            <path d="M77.17,95.7900855 C77.66,95.5500855 79.35,96.0300855 79.71,95.6700855 C80.44,94.9400855 76.93,94.1000855 76.57,94.1000855 L76.21,94.1000855 C74.76,94.4600855 74.14,96.8900855 75.83,96.8900855 C76.44,96.8900855 76.69,96.0400855 77.17,95.8000855" id="路径" fill="#231815"></path>
            <path d="M139.67,99.1800855 C134.1,97.0000855 134.58,99.1800855 135.07,99.5500855 C135.67,100.030085 136.89,100.280085 140.88,101.720085 C153.23,106.450085 157.59,115.530085 158.57,115.650085 C157.11,113.360085 150.32,103.420085 139.67,99.1800855" id="路径" fill="#231815"></path>
            <path d="M105.27,167.970085 C105.27,167.970085 106.37,166.400085 108.3,163.380085 L108.3,163.000085 C108.18,161.920085 107.33,161.310085 106.61,160.580085 C105.16,158.880085 98.5,155.130085 101.28,152.950085 C102.86,151.610085 112.06,141.930085 117.63,136.360085 C122.48,131.640085 128.53,125.460085 131.8,120.120085 C134.1,116.740085 135.44,112.740085 136.04,111.040085 C135.92,111.280085 134.48,113.460085 134.22,113.820085 C133.38,116.380085 127.08,123.880085 126.23,124.480085 C122.96,127.140085 122.48,129.820085 119.32,132.480085 C116.41,135.020085 115.33,136.470085 115.33,136.470085 C115.33,136.470085 114.6,138.410085 114.23,138.160085 C108.66,143.370085 100.79,150.760085 99.82,151.720085 C98.74,152.580085 97.64,152.690085 96.66,151.720085 C96.06,151.120085 96.66,152.100085 95.46,153.540085 C94.85,154.270085 94,154.760085 93.41,155.480085 C92.55,156.330085 90.02,159.480085 89.65,160.690085 C90.49,161.180085 93.64,158.150085 94.13,157.540085 C94.37,159.000085 92.92,160.210085 92.19,161.300085 C91.35,162.510085 90.5,163.490085 89.76,164.820085 C88.43,167.360085 88.08,169.540085 87.58,173.050085 C87.22,175.350085 86.12,195.710085 86.02,197.400085 C86.02,197.880085 86.26,200.420085 87.46,199.700085 C88.08,199.340085 87.1,199.100085 87.22,198.490085 C87.34,196.790085 87.22,195.100085 87.1,193.400085 C86.98,190.870085 88.08,177.540085 88.92,174.630085 C89.29,173.170085 89.42,171.600085 90.02,170.260085 C90.26,169.180085 90.38,168.460085 91.1,167.600085 C90.14,173.530085 90.86,175.840085 90.5,180.930085 C90.14,186.860085 91.35,194.250085 90.86,196.670085 C90.86,196.670085 95.71,185.170085 99.95,177.420085 C103.34,171.360085 106.62,166.520085 107.34,165.300085 C107.58,164.930085 107.82,164.580085 108.08,164.210085 C106.62,166.390085 105.65,167.720085 105.29,167.960085" id="路径" fill="#231815"></path>
            <path d="M104.42,106.930085 C104.17,107.050085 103.69,107.420085 103.33,107.530085 C103.33,107.530085 103.09,108.020085 102.97,108.020085 L102.37,108.740085 C102.37,109.350085 101.4,109.700085 101.03,109.960085 C100.43,110.320085 99.57,111.400085 99.57,112.250085 C99.57,113.230085 100.29,112.610085 100.91,112.250085 C102.13,111.890085 102.97,111.650085 103.82,110.810085 C105.02,109.710085 106.48,108.020085 104.42,106.930085" id="路径" fill="#231815"></path>
            <path d="M74.51,108.990085 C74.51,108.990085 75.47,109.230085 75.6,109.230085 C76.2,109.230085 76.81,109.230085 77.29,109.340085 C78.14,109.700085 78.98,110.440085 79.96,110.680085 C80.56,110.800085 83.23,110.560085 82.26,109.580085 L82.14,109.580085 L82.14,109.460085 C82.14,109.340085 82.02,109.340085 82.02,109.100085 C79.73,108.500085 81.78,108.980085 81.66,108.980085 C80.69,108.380085 82.87,106.810085 83.24,106.680085 C84.82,105.830085 89.53,105.830085 93.05,104.750085 C94.01,104.510085 94.87,104.010085 95.84,104.010085 C96.68,104.130085 96.8,104.610085 96.68,105.230085 C96.44,106.070085 95.36,106.200085 94.87,106.560085 C94.14,107.040085 94.01,107.400085 93.17,107.760085 C92.69,108.010085 92.07,108.140085 91.59,108.260085 C91.35,108.380085 90.99,108.380085 90.75,108.500085 L90.27,108.500085 L90.27,108.630085 C89.89,108.630085 90.14,108.750085 89.89,108.990085 C91.83,109.110085 93.05,108.630085 94.98,108.020085 C95.96,107.650085 97.06,107.890085 98.02,107.540085 C98.62,107.420085 100.32,106.210085 99.84,107.540085 C99.72,108.150085 98.02,109.590085 97.9,110.090085 C97.66,110.690085 99.84,109.350085 100.08,109.350085 C100.32,109.240085 101.9,108.020085 103,107.060085 C103.96,105.960085 104.2,105.120085 104.57,104.760085 C104.93,104.390085 105.41,103.670085 106.01,103.420085 C106.99,103.060085 107.95,103.180085 108.44,102.080085 C108.68,101.720085 108.44,100.150085 108.8,98.3200855 C108.92,97.7200855 108.2,97.9600855 107.35,97.3500855 C106.25,96.5100855 104.81,94.9400855 104.31,95.1700855 C103.47,95.6500855 102.86,97.7200855 102.13,98.4500855 C99.09,101.230085 94.74,101.480085 91.22,102.320085 C89.29,102.920085 88.33,104.510085 86.49,104.870085 C84.69,105.350085 84.07,104.870085 82.38,105.590085 C81.04,105.950085 78.75,107.530085 77.41,107.890085 C76.69,108.140085 75.97,108.020085 75.23,108.260085 C74.99,108.380085 74.15,108.980085 74.51,108.980085" id="路径" fill="#231815"></path>
            <path d="M72.81,131.640085 C73.41,130.180085 72.81,126.670085 74.38,124.130085 C76.2,121.340085 75.84,120.130085 75.84,120.130085 C75.84,120.130085 73.9,121.220085 72.81,123.640085 C71.11,127.650085 72.57,132.240085 72.81,131.640085" id="路径" fill="#231815"></path>
            <path d="M124.9,140.840085 C155.06,104.620085 137.02,102.570085 137.02,102.570085 C137.02,102.570085 148.16,107.660085 129.26,133.580085 C119.69,146.660085 112.19,157.560085 108.31,163.500085 C108.19,163.740085 108.19,163.980085 108.07,164.230085 C111.44,159.020085 117.63,149.570085 124.9,140.850085" id="路径" fill="#231815"></path>
            <path d="M93.76,67.0700855 C93.76,67.1900855 94,67.0700855 94.36,67.0700855 C94.49,66.9500855 94.49,66.8300855 94.6,66.8300855 L94.36,66.8300855 C94,66.8300855 93.76,67.0700855 93.76,67.0700855" id="路径" fill="#231815"></path>
            <path d="M151.54,143.510085 C151.54,143.510085 161.48,123.770085 156.27,115.160085 C156.27,115.160085 156.99,131.150085 151.54,143.510085" id="路径" fill="#231815"></path>
            <path d="M127.68,154.290085 C127.68,154.290085 122.95,156.470085 141.12,156.590085 C141.12,156.590085 132.29,155.750085 130.84,154.290085 C129.38,152.950085 146.83,146.780085 150.71,145.450085 C150.71,145.450085 132.54,148.840085 127.69,154.290085" id="路径" fill="#231815"></path>
            <path d="M67.23,135.280085 C61.9,137.940085 46.04,145.200085 38.4,158.300085 C38.4,158.300085 49.54,144.010085 69.42,136.620085 C75.35,134.440085 71.83,133.090085 67.22,135.280085" id="路径" fill="#231815"></path>
            <path d="M79.84,139.870085 C76.57,135.630085 73.29,131.030085 73.43,133.320085 C73.43,133.320085 77.17,143.380085 93.05,150.280085 C93.05,150.280085 83.48,144.710085 79.85,139.860085" id="路径" fill="#231815"></path>
            <path d="M160.75,115.410085 L159.79,115.650085 C159.17,116.630085 162.94,117.230085 166.68,118.190085 C171.29,119.280085 173.59,120.020085 173.59,120.020085 C170.32,117.230085 160.75,115.410085 160.75,115.410085" id="路径" fill="#231815"></path>
            <path d="M72.57,136.240085 C72.57,136.240085 75.11,144.600085 78.26,151.130085 C82.61,160.090085 83.59,163.500085 83.59,165.430085 C83.59,169.320085 80.56,171.610085 82.01,171.260085 C83.47,171.020085 82.01,171.860085 83.59,169.320085 C86.25,164.830085 85.52,162.400085 78.62,149.810085 C76.68,146.420085 74.26,139.750085 72.57,136.240085" id="路径" fill="#231815"></path>
            <path d="M94.49,64.7800855 C94.49,64.7800855 96.06,64.3000855 96.55,64.3000855 C96.79,64.3000855 97.15,64.4200855 97.52,64.4200855 C97.39,64.3000855 97.15,64.0500855 96.79,63.6900855 C95.58,63.8100855 94.49,64.7900855 94.49,64.7900855" id="路径" fill="#231815"></path>
            <path d="M144.15,158.650085 C140.63,157.670085 109.87,193.170085 109.87,193.170085 C132.29,168.460085 148.15,159.750085 144.15,158.650085" id="路径" fill="#231815"></path>
            <path d="M112.54,217.030085 C112.54,213.400085 109.63,210.360085 105.88,210.360085 C102.13,210.360085 99.21,213.400085 99.21,217.030085 C99.21,220.660085 102.25,223.700085 105.88,223.700085 C109.51,223.700085 112.54,220.670085 112.54,217.030085" id="路径" fill="#FFFFFF" fill-rule="nonzero"></path>
        </g>
    </g>
</svg>