<?xml version="1.0" encoding="UTF-8"?>
<svg id="_图层_1" data-name="图层 1" xmlns="http://www.w3.org/2000/svg" viewBox="0 0 1366 768">
  <defs>
    <style>
      .cls-1, .cls-2 {
        fill: #fff;
      }

      .cls-3 {
        fill: #c6000b;
      }

      .cls-4, .cls-5 {
        fill: #231815;
      }

      .cls-5, .cls-2 {
        fill-rule: evenodd;
      }
    </style>
  </defs>
  <path class="cls-3" d="m306.76,375.43c0-57.42-46.51-103.93-103.93-103.93s-103.93,46.52-103.93,103.93,46.52,103.93,103.93,103.93,103.93-46.52,103.93-103.93"/>
  <path class="cls-1" d="m305.31,375.43c0-56.58-45.92-102.48-102.48-102.48s-102.35,45.9-102.35,102.48,45.79,102.35,102.35,102.35,102.48-45.79,102.48-102.35"/>
  <path class="cls-3" d="m302.77,375.43c0-55.12-44.81-99.82-99.92-99.82s-99.82,44.7-99.82,99.82,44.7,99.81,99.82,99.81,99.92-44.7,99.92-99.81"/>
  <path class="cls-1" d="m116.72,354.23l.6-2.53,2.31.48-1.45,5.57-6.79-1.82c0-.85,0-1.93.24-3.15.12-.12.12-.24.12-.36.12-.86.36-1.7.6-2.8,1.34-3.99,4.25-5.44,8.61-4.36,4.37,1.21,6.18,4,5.33,8.12-1.08,4.23-3.15,5.93-6.05,5.08l.85-3.02c1.56.36,2.54-.25,3.02-2.05.62-2.55-.72-4.25-4-5.09-3.15-.86-5.09,0-5.82,2.42-.24.84-.35,1.7-.48,2.78l2.91.74Z"/>
  <path class="cls-1" d="m115.62,369.98c3.39.48,5.33-.36,5.57-2.67.37-2.42-1.2-3.74-4.48-4.23-3.39-.48-5.21.5-5.57,2.79-.24,2.3,1.2,3.64,4.47,4.12m-.36,3.15c-4.61-.84-6.67-3.27-6.17-7.63.73-4.25,3.4-6.07,7.99-5.57,4.73.84,6.79,3.4,6.29,7.63-.72,4.24-3.38,6.05-8.11,5.57Z"/>
  <path class="cls-1" d="m115.26,385.12c3.39,0,5.09-1.22,4.97-3.52,0-2.42-1.7-3.51-5.09-3.51-3.4.14-5.09,1.34-5.09,3.64.12,2.31,1.82,3.51,5.21,3.39m0,3.15c-4.73,0-7.02-2.18-7.26-6.54.12-4.24,2.42-6.53,7.03-6.78,4.71.13,7.27,2.31,7.39,6.66,0,4.25-2.42,6.55-7.15,6.67Z"/>
  <path class="cls-1" d="m120.71,392.75l-9.09,1.94.38,1.46c.48,2.79,2.29,3.76,5.33,3.03,3.15-.49,4.35-2.18,3.75-4.85l-.37-1.57Zm-11.87-.48l13.57-2.78.96,4.59c.84,4.48-.85,7.27-5.45,8.24-4.48.97-7.15-.96-8.13-5.46l-.96-4.59Z"/>
  <path class="cls-1" d="m126.16,410.19l-8.11,4.37.73,1.33c1.2,2.55,3.26,2.91,5.93,1.45,2.78-1.45,3.51-3.39,2.18-5.81l-.73-1.34Zm-11.5,2.91l12.12-6.55,2.3,4.11c2.18,4.12,1.21,7.28-2.78,9.46-4.13,2.18-7.27,1.22-9.46-2.91l-2.18-4.12Z"/>
  <path class="cls-1" d="m133.92,429.57c2.66-2.18,3.16-4.12,1.69-5.93-1.58-1.82-3.63-1.57-6.18.6-2.54,2.19-3.15,4.13-1.58,5.95,1.46,1.82,3.52,1.58,6.06-.62m2.06,2.43c-3.64,2.9-6.91,2.78-9.7-.48-2.78-3.27-2.42-6.55,1.09-9.7,3.76-2.9,7.03-2.78,9.81.48,2.67,3.27,2.31,6.55-1.2,9.7Z"/>
  <path class="cls-1" d="m146.51,431.39c2.78,2.42,3.27,4.97,1.34,7.51l-2.44-2.06c1.1-1.46.98-2.67-.36-3.76-1.32-.97-3.02-.24-5.33,2.18-1.94,2.54-2.42,4.48-1.2,5.58,1.32,1.09,2.66.97,3.75-.24l2.42,1.94c-2.05,2.29-4.59,2.29-7.51-.12-2.79-2.42-2.79-5.57.12-9.21,3.15-3.51,6.17-4.11,9.2-1.82"/>
  <polygon class="cls-1" points="149.66 437.44 150.88 435.51 160.32 441.68 159.11 443.51 155.59 441.33 149.3 451.02 146.75 449.32 153.06 439.63 149.66 437.44"/>
  <path class="cls-1" d="m166.63,452.71c1.56-3.02,1.32-5.09-.73-6.17-2.18-.97-3.99,0-5.45,3.02-1.58,2.91-1.34,4.97.72,6.06,2.18,1.08,3.87.13,5.46-2.91m2.78,1.46c-2.18,4.11-5.21,5.21-9.08,3.39-3.88-2.06-4.73-5.21-2.79-9.46,2.31-4.11,5.46-5.31,9.34-3.38,3.75,2.06,4.59,5.21,2.53,9.44Z"/>
  <path class="cls-1" d="m175.83,451.38l-1.09,3.5,2.31.73c1.32.48,2.18,0,2.54-1.08.36-1.1-.12-1.94-1.34-2.31l-2.42-.84Zm-1.82,5.69l-1.82,5.33-2.79-.98,4.25-13.08,5.69,1.82c3.02.98,4.11,2.68,3.39,4.85-.62,1.7-1.82,2.54-3.76,2.42,1.45.48,1.94,1.82,1.45,3.75-.12.12-.12.36-.12.36,0,.11-.12.25-.12.49-.24,1.44-.36,2.42-.12,2.9l-3.15-.96c.13-1.1.37-2.31.61-3.76.36-1.21.12-1.8-.61-2.18l-2.9-.96Z"/>
  <polygon class="cls-1" points="226.82 464.95 224.04 465.79 220.16 452.47 222.95 451.61 224.52 456.95 229.48 455.48 228.04 450.17 230.81 449.43 234.82 462.65 231.91 463.49 230.22 457.68 225.13 459.12 226.82 464.95"/>
  <path class="cls-1" d="m239.54,454.89l3.51-1.82-4.36-4.37.85,6.19Zm.6,5.45l-2.54,1.34-1.59-14.67,3.15-1.56,10.42,10.16-2.66,1.46-2.19-2.18-4.84,2.42.24,3.04Z"/>
  <path class="cls-1" d="m255.9,442.66c-2.07-2.78-4.01-3.39-5.95-1.94-1.82,1.33-1.7,3.39.24,6.17,2.07,2.67,4.01,3.27,5.95,1.94,1.8-1.44,1.69-3.5-.24-6.17m2.54-1.94c2.66,3.87,2.3,7.02-1.09,9.68-3.52,2.55-6.67,2.06-9.57-1.58-2.8-3.87-2.42-7.14.96-9.8,3.39-2.54,6.67-1.94,9.7,1.69Z"/>
  <polygon class="cls-1" points="271.52 436.72 268.12 433.81 257.84 431.51 260.13 428.85 266.79 430.66 263.76 424.36 265.7 422.07 269.94 431.51 273.47 434.42 271.52 436.72"/>
  <polygon class="cls-1" points="267.64 418.67 279.28 426.3 277.58 428.72 265.94 421.21 267.64 418.67"/>
  <path class="cls-1" d="m275.28,402.8c1.21-2.78,3.15-3.75,5.69-2.9l-1.08,2.66c-1.34-.36-2.31.12-2.79,1.34-.48,1.45-.12,2.3.85,2.79.96.35,1.8,0,2.66-1.46,0-.13.12-.13.12-.24,0,0,.12-.13.24-.24,1.82-2.79,3.63-3.89,5.33-3.15,2.66,1.2,3.39,3.63,2.06,7.26-1.34,3.39-3.38,4.48-6.29,3.26l1.08-2.92c1.45.74,2.55.26,3.27-1.08.6-1.82.36-2.9-.72-3.27-.86-.48-1.82.13-2.67,1.57-.24.25-.36.49-.36.6-1.82,2.55-3.64,3.52-5.34,2.79-2.53-1.21-3.27-3.52-2.05-7.03"/>
  <polygon class="cls-1" points="292.35 396.26 291.87 399.17 278.18 396.86 278.67 393.96 284.12 394.92 284.96 389.73 279.63 388.75 280.11 385.85 293.69 388.15 293.19 391.05 287.26 390.09 286.3 395.3 292.35 396.26"/>
  <polygon class="cls-1" points="294.05 384.51 280.23 383.79 280.73 374.57 283.03 374.7 282.67 381 285.94 381.12 286.18 375.19 288.48 375.31 288.24 381.24 291.87 381.48 292.23 374.95 294.54 375.06 294.05 384.51"/>
  <polygon class="cls-1" points="293.44 358.95 293.8 363.19 282.9 369.61 294.42 368.66 294.65 371.43 280.85 372.63 280.36 368.28 290.78 361.99 279.88 362.95 279.64 360.17 293.44 358.95"/>
  <path class="cls-1" d="m284.72,347.2l.98,2.54-2.31.73-1.8-5.33,6.53-2.31c.5.61.98,1.58,1.57,2.67,0,.12,0,.24.12.36.36.74.73,1.58.97,2.67,1.2,4-.24,6.91-4.49,8.47-4.36,1.46-7.27.14-9.09-3.63-1.45-4.11-.72-6.66,2.18-7.75l.98,3.03c-1.46.48-1.94,1.7-1.22,3.39.84,2.42,2.92,3.14,6.07,2.06,3.14-1.22,4.36-3.03,3.5-5.45-.36-.73-.72-1.57-1.2-2.55l-2.79,1.09Z"/>
  <path class="cls-1" d="m276,375.43c0-40.34-32.7-73.05-73.17-73.05s-73.04,32.7-73.04,73.05,32.71,73.03,73.04,73.03,73.17-32.7,73.17-73.03"/>
  <path class="cls-3" d="m132.34,375.43c0-39.01,31.62-70.5,70.5-70.5v1.7c-19.01,0-36.22,7.63-48.69,20.09-12.48,12.49-20.1,29.68-20.1,48.71s7.63,36.21,20.1,48.69c12.48,12.48,29.68,20.1,48.69,20.1s36.23-7.63,48.69-20.1c12.48-12.48,20.12-29.68,20.12-48.69s-7.64-36.22-20.12-48.71c-12.47-12.46-29.67-20.09-48.69-20.09v-1.7c39.01,0,70.5,31.49,70.5,70.5s-31.5,70.49-70.5,70.49-70.5-31.5-70.5-70.49"/>
  <polygon class="cls-2" points="214.95 302.02 206.47 266.05 171.35 257.08 150.99 277.92 140.34 291.12 144.58 324.19 150.03 333.89 198.84 335.1 220.04 319.35 214.95 302.02"/>
  <path class="cls-5" d="m212.78,318.86c-1.82,0-3.87.97-3.87.72.1-1.44.24-2.9.24-4.36,0-.72-.24-1.69-.13-2.31,0-.72,1.22-1.8,1.95-1.68.84.12.6.36,3.04,2.79,2.04,2.17,1.69,4.83-1.22,4.83m-4.85-1.46c0,.6,0,1.22-.24,1.7-.24.98-.85,1.57-1.93,2.3-1.7,1.09-3.64,2.07-5.57,2.79-1.7.6-3.39,1.22-5.21,1.22-1.82.12-3.15.12-4.73-.62-1.32-.72-3.02-1.7-3.51-3.15-.36-1.56,0-3.99.84-5.32.49-.96,2.19-1.81,2.79-2.54.6-.6.26-.72.6-1.44,0-.25.24-.49.61-.85.36-.49,1.32-.84,2.06-.97,0,0-.12,0-.12.13.24,0,.36,0,.36.11,0,0-.24.14-.6.14-.24.36-.38.84-.12,1.32.96,1.57,3.76,1.21,5.33.72,1.7-.59,2.9-.48,1.7.85-.5.5-1.1.85-1.7,1.1-1.09.6-2.06,1.1-2.67,1.94,2.18.6,3.52-.24,4.61-.74,2.42-1.08,3.28-3.02,5.69-3.15,1.94,0,1.82,3.28,1.82,4.49Zm-21.56-6.29c-.24.48-1.08,1.8-1.7,1.32-.6-.48-.6-.96-.36-1.46.6-1.2,3.15-2.18,2.06.13Zm9.2-2.31c-1.94.13-4.12,1.83-4.61,2.08-.48.24-1.21.1-1.7-.25-2.78-1.58,1.59-4.13,3.15-4.13.85,0,2.31.12,2.91.73.12.11.24.24.36.24.24,0,.6.12.85.24l.36.73s-.12-.12-.48-.24c.48.6.24.6-.86.6Zm-15.01,1.34c-1.1,1.94-.37,2.54-1.34,3.03-1.7.86-4.24,1.94-5.81,1.7-1.34-.12.36-.25-2.19-1.1-2.54-.85-6.53-.24-6.89-.24.48.24,2.78-.36,2.91.97-5.09.11-7.52.72-6.3,4.35-2.05.72-3.27,1.82-4.61,3.51,0-1.22.36-2.54.98-3.51-.36-.11-1.34.6-1.58.97-2.29,2.18,0,6.17-4.35,5.69-1.33-.12-3.15-1.34-3.27-2.55,0-.48,1.44-2.66,3.02-4.12,1.45-1.33,2.91-1.81,2.91-1.94,0,0-1.57.24-2.91,1.08-1.81,1.1-3.51,3.03-3.75,3.03-1.7,1.21-2.06-4.12-1.94-2.78.13.72.37-1.1-.24-3.39-.84-3.03-1.22-5.09-2.42-9.2-.85-3.04-.25-8,.6-11.04.5-2.05,4.24-14.65,12.36-19.01,2.06-1.22,4.73-2.18,7.15-2.3,2.42-.24,4.85-.49,7.14-.97,2.3-.48,3.16-.96,7.75-2.8,4.37-1.68,5.57-.6,10.07-.6s7.27,4.85,12,5.33c4.11.36,7.87,2.79,5.81,7.63-2.06,4.61-.86,5.69-1.46,10.06-.6,4.23-2.42,1.82-3.15,3.15-.48.84.73,2.42-.12,3.15-1.21.84-1.08-.62-3.27-.49-1.33.12-2.53,2.17-6.42,3.15-2.66.6-3.98,1.82-4.71,2.54-1.21,1.1,1.82,1.1,2.78.62,1.83-.97,4.13-1.46,4.61-.97.61.74-4,1.58-4.48,1.82-4.01.97-8,3.63-8.84,5.21Zm1.93,1.58c-.36.72-.97.72-.97.36,0-1.44,1.45-2.79,1.45-2.79,0,0-.24,1.83-.48,2.43Zm-7.03,7.99v.49h-.12c0,.12,0,.24-.12.37h-.12v.11c-.12.12-.24.24-.36.36q-.25,0-.37-.12v-.48c-.12-.36,0-1.21,0-1.69,0-.12.12-.25.12-.25h.12v-.12h.13s.12,0,.24-.12h.24l.24.36v.24c0,.24,0,.48.12.84h-.12Zm-5.69-3.99c0-.36.24-.36.48-.36h.24v-.12c.25,0,.38,0,.48.12,0,.11.13.11.13.24s0,.24-.13.38c-.36.1-.6,0-.96,0,0,0-.12-.13-.24-.13v-.12Zm2.78,13.33c-.84,5.32-4.36,6.91-9.08,7.99-4.72,1.1-6.06.36-6.91.12-.73-.12-2.3-.12-3.76-1.94-.72-.85-2.42-3.63-3.02-4.59-2.06-4.01,2.42-2.55,4.72-.86,1.94.12.86-2.53,2.18-4.97.86-1.57,1.83-1.94,3.16-2.06q-.12-.12-.12-.24c0-.36.5-.6,1.1-.6s1.09.24,1.09.6l-.13.12h.13c4.11-.24,1.57-1.7,4.11-1.46.73,0,1.08.24,1.94-.12.6-.24,1.32-.6,1.94-.96.72-.38,1.58-1.34,2.3-.38.48.61.48,1.7.61,2.43,0,.84.11,1.69.24,2.42.12,1.58-.24,2.91-.5,4.49Zm48.33,10.65c.48-.34,1.34-.11,1.57.37.12.36-.12.72-.12,1.08,0,1.09.37,2.07-.36,3.03-.24.48-1.45,1.94-1.45,1.94,0,0-.12-1.1-.24-1.7,0-.6-.36-1.34-.36-2.06,0-.98.36-2.18.96-2.67Zm-2.42,36.95c1.69-1.93,3.87-4.11,5.57-6.17,1.1-1.22,3.51-4.97,4.61-6.06,3.26-3.62,6.41-10.3,6.41-10.3,0,0-.12.74-.48,1.94.6-1.33.84-1.2.84-4.11,0-.84-.72-7.01-2.3-8.23-2.91-2.67-4.11-4.73-3.15-7.51,1.09-3.03,4.61-11.75,6.31-20.84.72-3.76,1.58-9.69,2.17-13.32,3.4-19.86-3.03-29.92-4.71-32.72-2.44-4.23-4.73-6.53-9.94-9.8,0-4.49-15.87-16.97-30.04-15.63-7.87.73-7.39,1.95-11.62,1.34-8.24-1.34-15.39,2.66-19.39,5.09-2.3,1.46-5.93,6.67-12.96,8.6-8.96,2.66-10.54,10.16-12.96,16.95-1.7,4.85-3.27,5.33-4.61,8.11-1.46,2.91-2.79,9.34-.86,12.85,1.94,3.51-1.58,4.84.86,11.38,1.21,3.39,1.69,1.58,4.23,8,1.82,4.72,5.33,4.72,6.91,8.23.6,1.33,2.06,2.3,3.04,3.4.84.96,3.27,5.45,3.64,6.05.72,1.09,1.69,1.83,2.53,2.67.86.6,1.7,1.1,2.67,1.44,3.88,1.69,8.24.13,8.85,0,1.56-.48,3.26-.96,4.71-1.44,1.1-.36,2.42-1.34,3.16-2.19.36-.48.6-.73.85-1.33.72-1.09,1.33-2.41,1.56-3.75.12-.73.12-1.45.24-2.18.13-.74.13-1.45.37-2.19.48-1.33.84-2.66,1.45-3.87.36-.96,1.57-1.94,2.78-1.7.84.24,2.3,1.58,2.91,2.19.24.36,3.15,2.9,3.99,4.36.48.84.12,2.18,1.45,2.9,1.7,1.09,2.55.61,3.05.74,1.56.24,3.14,2.42,2.53,3.75-1.58,2.91-3.27-.48-6.43.84-2.9,1.34-1.44,3.15-3.99,4.61-.24.12-.73.72-.73.72,0,0,.96,1.58,3.52-.72,2.3-1.94,7.26-.36,10.28-1.46,4.98-1.69,2.67-3.39,2.67-5.93,0-.62-2.06-.48-3.15-.85-2.06-.84-4.48-1.81-3.75-2.9.74-1.21,3.75-.73,4.85-.85,2.06-.36,3.51-1.08,5.45-1.81,1.2-.48,2.78-1.33,3.99-1.7,1.2-.24,7.15-2.42,8.13-.24,2.77,7.14-4.25,6.91-2.92,11.75.6,2.06,1.22,2.18,2.3,4.61,1.1,2.53.85,4.6,2.06,3.73,1.08-.84,2.43-1.93,1.58,3.28-.36,2.06-2.3,3.51-3.16,5.45-.84,2.05.14,5.34-1.69,7.86-1.94,3.15-3.75,4.49-6.53,7.28-3.63,3.52-6.79,3.52-8.84,3.99-2.3.48-5.33.6-6.07.48-2.3-.24,1.59,2.55,3.77,3.28,3.38,1.09,2.42,3.99,3.99,5.09,2.78,2.06,5.45.6,8.59.6s5.09.98,6.07,1.58c2.66-2.55,4.73-4.6,5.33-5.33Z"/>
  <path class="cls-5" d="m164.32,313.17c-.24-.25-.6-.12-.84-.12-.37,0-.5-.48-.73-.48-.73,0-1.58-.24-1.82-.37-.36-.12-.72-.12-1.08-.12h-1.59c-.24,0-.6-.12-.85.12q-.12.24-.36.37c-.6,0-.84.48-.84.6-.13,0-.73.48-.97.72-.11.24-.37.61-.37.85-.24.24-.59.6-.84.84.12.12.25.12.5.12,1.2,0,2.41-.96,4.95-1.58,1.22-.24,3.4.13,4.49-.48.12,0,.25-.12.36-.12v-.12.12c.12-.12.12-.24,0-.36"/>
  <path class="cls-5" d="m168.08,322.74c-.36-.12-.98,0-1.46.36-.36.24-.84.48-1.22.74-.36.24-.6.72-.96.96-.25.24-1.7.98-1.93,1.33-.37,1.2,2.9-.61,3.38-.85.74-.36,1.7-.72,2.07-1.58.36-.48.24-.84.12-.96"/>
  <path class="cls-5" d="m176.07,339.58c.49-.24,2.18.24,2.54-.12.73-.73-2.78-1.57-3.14-1.57h-.36c-1.45.36-2.07,2.79-.38,2.79.61,0,.86-.85,1.34-1.09"/>
  <path class="cls-5" d="m238.57,342.97c-5.57-2.18-5.09,0-4.6.37.6.48,1.82.73,5.81,2.17,12.35,4.73,16.71,13.81,17.69,13.93-1.46-2.29-8.25-12.23-18.9-16.47"/>
  <path class="cls-5" d="m204.17,411.76s1.1-1.57,3.03-4.59v-.38c-.12-1.08-.97-1.69-1.69-2.42-1.45-1.7-8.11-5.45-5.33-7.63,1.58-1.34,10.78-11.02,16.35-16.59,4.85-4.72,10.9-10.9,14.17-16.24,2.3-3.38,3.64-7.38,4.24-9.08-.12.24-1.56,2.42-1.82,2.78-.84,2.56-7.14,10.06-7.99,10.66-3.27,2.66-3.75,5.34-6.91,8-2.91,2.54-3.99,3.99-3.99,3.99,0,0-.73,1.94-1.1,1.69-5.57,5.21-13.44,12.6-14.41,13.56-1.08.86-2.18.97-3.16,0-.6-.6,0,.38-1.2,1.82-.61.73-1.46,1.22-2.05,1.94-.86.85-3.39,4-3.76,5.21.84.49,3.99-2.54,4.48-3.15.24,1.46-1.21,2.67-1.94,3.76-.84,1.21-1.69,2.19-2.43,3.52-1.33,2.54-1.68,4.72-2.18,8.23-.36,2.3-1.46,22.66-1.56,24.35,0,.48.24,3.02,1.44,2.3.62-.36-.36-.6-.24-1.21.12-1.7,0-3.39-.12-5.09-.12-2.53.98-15.86,1.82-18.77.37-1.46.5-3.03,1.1-4.37.24-1.08.36-1.8,1.08-2.66-.96,5.93-.24,8.24-.6,13.33-.36,5.93.85,13.32.36,15.74,0,0,4.85-11.5,9.09-19.25,3.39-6.06,6.67-10.9,7.39-12.12.24-.37.48-.72.74-1.09-1.46,2.18-2.43,3.51-2.79,3.75"/>
  <path class="cls-5" d="m203.32,350.72c-.25.12-.73.49-1.09.6,0,0-.24.49-.36.49l-.6.72c0,.61-.97.96-1.34,1.22-.6.36-1.46,1.44-1.46,2.29,0,.98.72.36,1.34,0,1.22-.36,2.06-.6,2.91-1.44,1.2-1.1,2.66-2.79.6-3.88"/>
  <path class="cls-5" d="m173.41,352.78s.96.24,1.09.24c.6,0,1.21,0,1.69.11.85.36,1.69,1.1,2.67,1.34.6.12,3.27-.12,2.3-1.1h-.12v-.12c0-.12-.12-.12-.12-.36-2.29-.6-.24-.12-.36-.12-.97-.6,1.21-2.17,1.58-2.3,1.58-.85,6.29-.85,9.81-1.93.96-.24,1.82-.74,2.79-.74.84.12.96.6.84,1.22-.24.84-1.32.97-1.81,1.33-.73.48-.86.84-1.7,1.2-.48.25-1.1.38-1.58.5-.24.12-.6.12-.84.24h-.48v.13c-.38,0-.13.12-.38.36,1.94.12,3.16-.36,5.09-.97.98-.37,2.08-.13,3.04-.48.6-.12,2.3-1.33,1.82,0-.12.61-1.82,2.05-1.94,2.55-.24.6,1.94-.74,2.18-.74.24-.11,1.82-1.33,2.92-2.29.96-1.1,1.2-1.94,1.57-2.3.36-.37.84-1.09,1.44-1.34.98-.36,1.94-.24,2.43-1.34.24-.36,0-1.93.36-3.76.12-.6-.6-.36-1.45-.97-1.1-.84-2.54-2.41-3.04-2.18-.84.48-1.45,2.55-2.18,3.28-3.04,2.78-7.39,3.03-10.91,3.87-1.93.6-2.89,2.19-4.73,2.55-1.8.48-2.42,0-4.11.72-1.34.36-3.63,1.94-4.97,2.3-.72.25-1.44.13-2.18.37-.24.12-1.08.72-.72.72"/>
  <path class="cls-5" d="m171.71,375.43c.6-1.46,0-4.97,1.57-7.51,1.82-2.79,1.46-4,1.46-4,0,0-1.94,1.09-3.03,3.51-1.7,4.01-.24,8.6,0,8"/>
  <path class="cls-5" d="m223.8,384.63c30.16-36.22,12.12-38.27,12.12-38.27,0,0,11.14,5.09-7.76,31.01-9.57,13.08-17.07,23.98-20.95,29.92-.12.24-.12.48-.24.73,3.37-5.21,9.56-14.66,16.83-23.38"/>
  <path class="cls-5" d="m192.66,310.86c0,.12.24,0,.6,0,.13-.12.13-.24.24-.24h-.24c-.36,0-.6.24-.6.24"/>
  <path class="cls-5" d="m250.44,387.3s9.94-19.74,4.73-28.35c0,0,.72,15.99-4.73,28.35"/>
  <path class="cls-5" d="m226.58,398.08s-4.73,2.18,13.44,2.3c0,0-8.83-.84-10.28-2.3-1.46-1.34,15.99-7.51,19.87-8.84,0,0-18.17,3.39-23.02,8.84"/>
  <path class="cls-5" d="m166.13,379.07c-5.33,2.66-21.19,9.92-28.83,23.02,0,0,11.14-14.29,31.02-21.68,5.93-2.18,2.41-3.53-2.2-1.34"/>
  <path class="cls-5" d="m178.74,383.66c-3.27-4.24-6.55-8.84-6.41-6.55,0,0,3.74,10.06,19.62,16.96,0,0-9.57-5.57-13.2-10.42"/>
  <path class="cls-5" d="m259.65,359.2l-.96.24c-.62.98,3.15,1.58,6.89,2.54,4.61,1.09,6.91,1.83,6.91,1.83-3.27-2.79-12.84-4.61-12.84-4.61"/>
  <path class="cls-5" d="m171.47,380.03s2.54,8.36,5.69,14.89c4.35,8.96,5.33,12.37,5.33,14.3,0,3.89-3.03,6.18-1.58,5.83,1.46-.24,0,.6,1.58-1.94,2.66-4.49,1.93-6.92-4.97-19.51-1.94-3.39-4.36-10.06-6.05-13.57"/>
  <path class="cls-5" d="m193.39,308.57s1.57-.48,2.06-.48c.24,0,.6.12.97.12-.13-.12-.37-.37-.73-.73-1.21.12-2.3,1.1-2.3,1.1"/>
  <path class="cls-5" d="m243.05,402.44c-3.52-.98-34.28,34.52-34.28,34.52,22.42-24.71,38.28-33.42,34.28-34.52"/>
  <path class="cls-1" d="m211.44,460.82c0-3.63-2.91-6.67-6.66-6.67s-6.67,3.04-6.67,6.67,3.04,6.67,6.67,6.67,6.66-3.03,6.66-6.67"/>
  <path class="cls-5" d="m640.84,325.38c-3.48.81-3.9,1.67-7.39,0v9.24c5.87.49,21.06,5.87,28.68-3.67,2.07-2.58,5.15-8.6,5.52-12.96h19.41v29.57h-44.36v12.94h44.36v25.88h-52.68v12.02h130.31v-12.02h-47.13v-25.88h37.89v-12.94h-37.89v-29.57h47.13v-10.17h-47.13v-13.87h-30.5v13.87h-16.63c.1-4.53,1.84-9.89,2.77-13.87h-24.03c-1.44,3-3.01,11.12-4.06,15.34-1.44,5.75-3.05,10.92-4.25,16.08"/>
  <path class="cls-5" d="m777.62,340.16h22.18c-4.08,17.53-38.46,58.22-16.64,58.22h118.3c7.72,0,9.24-6.11,9.24-12.02,0-7.28-12.47-30.47-12.94-36.04h-29.57c.33,4,1.66,5.79,2.88,9.13l10.06,26.91h-72.09l22.53-46.04,78.21-.17v-11.09h-132.16v11.09Z"/>
  <path class="cls-5" d="m925.49,388.22c0,5.77,2.65,10.17,8.32,10.17h119.22v-10.17h-99.82v-83.17h99.82v-11.09h-127.54v94.27Z"/>
  <path class="cls-5" d="m482.81,391.92c0,3.36,4.51,6.47,8.32,6.47h119.22v-10.17h-100.74v-83.17h100.74v-11.09h-127.54v97.96Z"/>
  <path class="cls-5" d="m368.99,316.08h9.27v39.83h-.27c-.65,1.79-2.36,3.07-4.36,3.07s-3.71-1.28-4.36-3.07h-.28v-39.83Zm-21.12-10.1h-7.39v10.16h7.39v44.36c0,2.06,9.48,12.17,12.02,13.86-7.62,14.39-9.4,13.86-19.41,13.86v10.17c35.32,0,19.75-1.37,30.5-9.24,7.66,11.44,3.06,9.24,31.42,9.24v-10.17c-8.36,0-9.93,1.68-18.48-11.09,1.59-6.84,11.09-11.18,11.09-17.56v-43.44h7.39v-10.16h-7.39v-12.02h-17.56v12.02h-8.32v-12.02h-21.26v12.02Z"/>
  <path class="cls-5" d="m406.1,305.97h36.04c-2.73,11.73-12.02,10.97-12.02,29.57h-24.03v10.17h24.03v39.74c0,4.89-10.47,2.77-24.03,2.77v10.17h43.44c4.57,0,8.32-3.75,8.32-8.32v-45.28h13.86v-8.32h-13.86c0-9.98,1.11-8.68,6.79-19.09,7.61-13.98,7.07-7.36,7.07-23.42h-65.62v12.02Z"/>
  <path class="cls-5" d="m960.61,326.3c0,13.7-2.71,12.02,13.86,12.02,6.41,0,9.88-3.13,11.09-8.32h10.17v13.86h-35.12v10.16h29.57c-1.09,4.07-4.59,5.52-7.12,8.59-6.37,7.74-5.39,6.19-22.46,6.19v10.17c21.05,0,30.69,3.1,38.96-7.25,1.63-2.04,2.97-3.77,4.48-5.69,1.96-2.5,3.81-3.41,4.63-6.47,7.95,5.33,10.31,19.41,24.03,19.41h20.33v-10.17c-12.46,0-16.78-2.57-24.96-14.79h24.96v-10.16h-30.5c-4.1,0-2.77-4.32-2.77-13.86h33.27v-11.09h-62.85l1.07-5.51-22.32-.03c-1.17,5.02-3.1,11.72-8.32,12.94"/>
  <path class="cls-5" d="m517,330.92c1.39,2.48.92,3.18.92,7.4h14.79c8.84,0,8.02-8.32,12.01-8.32h8.32c0,9.54,1.34,13.86-2.77,13.86h-32.35v10.16h29.57c-1.91,2.86-10,13.1-13.46,14.26-3.12,1.05-12.38.53-16.11.53v10.17c36.28,0,29.76,3.1,43.72-13.58,1.34-1.6,4.03-4.93,5.26-5.83,15.45,23.07,15.71,19.41,43.44,19.41v-10.17c-12.99,0-19.15-3.83-24.95-14.79h24.95v-10.16h-33.27v-13.86h33.27v-11.09h-63.77c1.14-2.16,1.59-2.41,1.85-5.54h-22.18c-1.94,8.34-3.37,17.07-9.24,17.56"/>
  <path class="cls-5" d="m1126.96,299.5h-48.98v23.1c-1.65-.79-6.02-1.65-8.32-1.85v13.87c4.18.09,3.67.93,8.32.93v14.78c-4.68,0-4.75.63-8.32.92v12.94c3.56-.3,3.64-.92,8.32-.92,0,8.58.74,15.96-.92,23.1-4.12-.09-5.63-1.35-8.32-2.77v11.09c12.5,6.62,32.35,5.57,32.35-11.09v-73.01h98.89v-11.09h-48.99v-5.55h-24.03v5.55Z"/>
  <path class="cls-5" d="m1106.63,332.77h61c-.91,3.89-2.84,6.79-4.8,9.98-7.96,12.92-.22,23.63-4.44,41.77-6.29,1.47-14.43-.92-22.18-.92v11.09c5.81,1.35,12.4,1.33,19.01,2.25,9.15,1.27,22.31,3.89,27.16-2.29,3.73-4.76.97-22.45,1.89-33.23.28-3.36,5.58-12.48,7.44-15.66,9.16-15.78,8.28-12.48,8.28-25h-93.34v12.02Z"/>
  <rect class="cls-4" x="786.87" y="293.95" width="116.45" height="12.02"/>
  <path class="cls-4" d="m1188.64,448.69v3.19h-16.18v-27.32h15.2v3.15h-11.65v8.46h10.86v2.99h-10.86v9.53h12.64Zm-40.46-10.75c1.26,0,2.34-.06,3.25-.17.9-.12,1.65-.36,2.22-.73.58-.37,1-.9,1.28-1.61.28-.71.41-1.64.41-2.8,0-1.02-.14-1.87-.41-2.52-.28-.66-.71-1.17-1.28-1.53-.58-.37-1.32-.62-2.22-.75-.9-.13-1.99-.19-3.25-.19h-3.07v10.31h3.07Zm9.17,13.93l-7.52-11.02c-.21.02-.43.04-.65.04h-4.07v10.98h-3.54v-27.32h6.93c1.92,0,3.54.14,4.86.41,1.33.28,2.4.73,3.23,1.36.83.63,1.43,1.46,1.79,2.5.37,1.04.55,2.3.55,3.8,0,2.36-.46,4.15-1.38,5.37-.92,1.22-2.32,2.04-4.21,2.46l8.19,11.42h-4.17Zm-34.4-11.3l-4.6-12.72h-.47l-4.69,12.72h9.76Zm1.14,3.15h-12.09l-3,8.15h-3.62l10.35-27.32h4.73l10.31,27.32h-3.74l-2.95-8.15Zm-34.17,8.55c-1.89,0-3.59-.2-5.12-.59-1.52-.39-2.83-1.11-3.92-2.15-1.09-1.03-1.93-2.46-2.52-4.29-.59-1.82-.89-4.17-.89-7.03,0-2.62.3-4.83.91-6.63.6-1.8,1.45-3.25,2.56-4.35,1.1-1.1,2.45-1.89,4.04-2.36,1.59-.47,3.36-.71,5.33-.71,1.26,0,2.35.06,3.28.19.93.13,1.81.33,2.62.59v3.27c-.78-.29-1.65-.52-2.6-.69-.94-.17-2.02-.26-3.23-.26-1.55,0-2.9.18-4.05.55-1.16.37-2.11.98-2.88,1.83-.76.85-1.33,1.97-1.71,3.35-.38,1.38-.57,3.09-.57,5.13,0,2.18.18,3.97.53,5.37.35,1.4.89,2.52,1.61,3.35.72.83,1.64,1.41,2.76,1.73,1.11.33,2.43.49,3.95.49,1.29,0,2.43-.08,3.42-.25,1-.17,2.02-.44,3.07-.81v3.07c-.76.34-1.71.62-2.84.84-1.13.22-2.38.34-3.78.34Zm-25.62-27.71v27.32h-3.58v-13.22h-13.5v13.22h-3.54v-27.32h3.54v11.14h13.5v-11.14h3.58Zm-31.65,3.15h-7.95v24.17h-3.54v-24.17h-7.99v-3.15h19.48v3.15Zm-27.78,20.98v3.19h-15.39v-27.32h3.54v24.13h11.85Zm-34-8.11l-4.61-12.72h-.48l-4.68,12.72h9.77Zm1.14,3.15h-12.09l-2.99,8.15h-3.62l10.35-27.32h4.73l10.31,27.32h-3.74l-2.95-8.15Zm-27.95,4.96v3.19h-16.17v-27.32h15.19v3.15h-11.65v8.46h10.86v2.99h-10.86v9.53h12.63Zm-30.15-24.13v27.32h-3.58v-13.22h-13.5v13.22h-3.54v-27.32h3.54v11.14h13.5v-11.14h3.58Zm-65.29,24.21c1.42,0,2.71-.17,3.9-.49,1.18-.33,2.2-.89,3.05-1.69.85-.8,1.51-1.88,1.97-3.25.46-1.36.69-3.07.69-5.12,0-2.18-.24-3.95-.73-5.33-.49-1.38-1.15-2.45-2.01-3.23-.85-.78-1.86-1.31-3.03-1.59-1.17-.29-2.44-.43-3.84-.43h-4.25v21.14h4.25Zm.08-24.21c1.97,0,3.76.18,5.37.53,1.62.35,3,1.03,4.15,2.03,1.16.99,2.06,2.39,2.7,4.17.64,1.78.96,4.09.96,6.93,0,2.65-.32,4.85-.96,6.59-.64,1.74-1.54,3.14-2.7,4.19-1.15,1.05-2.53,1.79-4.15,2.22-1.61.43-3.4.65-5.37.65h-7.87v-27.32h7.87Zm-32.04,27.71c-3.44,0-6.01-.7-7.71-2.11-1.71-1.41-2.56-3.77-2.56-7.11v-18.5h3.5v17.72c0,1.31.12,2.4.35,3.29.24.88.62,1.58,1.16,2.11.54.52,1.24.9,2.11,1.14.86.24,1.93.35,3.19.35s2.41-.12,3.29-.35c.88-.24,1.58-.62,2.11-1.14.53-.53.89-1.23,1.1-2.11.21-.88.32-1.98.32-3.29v-17.72h3.5v18.5c0,3.23-.87,5.57-2.6,7.03-1.73,1.46-4.32,2.19-7.76,2.19Zm-35.15-3.03c1.68,0,3.05-.21,4.09-.63,1.05-.42,1.87-1.07,2.46-1.97.59-.89,1-2.03,1.22-3.42.22-1.39.34-3.06.34-5s-.11-3.53-.34-4.92c-.22-1.39-.63-2.54-1.22-3.44-.59-.91-1.41-1.58-2.46-2.03-1.05-.45-2.41-.67-4.09-.67s-3.01.22-4.05.67c-1.05.45-1.87,1.12-2.46,2.03-.59.9-1,2.05-1.22,3.44-.23,1.39-.34,3.03-.34,4.92s.11,3.61.34,5c.22,1.39.63,2.53,1.22,3.42.59.89,1.41,1.55,2.46,1.97,1.05.42,2.4.63,4.05.63Zm0,3.03c-1.94,0-3.64-.22-5.1-.65-1.45-.43-2.68-1.18-3.68-2.24-1-1.06-1.75-2.5-2.24-4.31-.5-1.81-.75-4.09-.75-6.85s.25-5.03.75-6.83c.5-1.8,1.24-3.23,2.24-4.31,1-1.07,2.23-1.83,3.68-2.26,1.46-.44,3.15-.65,5.1-.65s3.65.21,5.12.65c1.47.43,2.7,1.19,3.68,2.26.98,1.07,1.73,2.51,2.23,4.31.5,1.8.75,4.08.75,6.83s-.25,5.04-.75,6.85c-.5,1.81-1.24,3.25-2.23,4.31-.98,1.06-2.21,1.81-3.68,2.24-1.47.44-3.17.65-5.12.65Zm-22.27-3.58v3.19h-15.4v-27.32h3.55v24.13h11.85Zm-34.05,3.58c-1.89,0-3.6-.2-5.12-.59-1.52-.39-2.83-1.11-3.92-2.15-1.09-1.03-1.93-2.46-2.52-4.29-.59-1.82-.89-4.17-.89-7.03,0-2.62.3-4.83.91-6.63.6-1.8,1.45-3.25,2.56-4.35,1.1-1.1,2.45-1.89,4.04-2.36,1.59-.47,3.36-.71,5.33-.71,1.26,0,2.36.06,3.29.19.93.13,1.81.33,2.62.59v3.27c-.78-.29-1.65-.52-2.6-.69-.95-.17-2.02-.26-3.23-.26-1.55,0-2.9.18-4.05.55-1.16.37-2.11.98-2.88,1.83-.76.85-1.33,1.97-1.71,3.35-.38,1.38-.57,3.09-.57,5.13,0,2.18.18,3.97.53,5.37.35,1.4.89,2.52,1.61,3.35.72.83,1.64,1.41,2.76,1.73,1.11.33,2.43.49,3.95.49,1.29,0,2.43-.08,3.43-.25,1-.17,2.02-.44,3.07-.81v3.07c-.76.34-1.71.62-2.84.84-1.13.22-2.39.34-3.78.34Zm-54.14-14.33c1.26,0,2.34-.06,3.25-.17.9-.12,1.65-.36,2.22-.73.58-.37,1-.9,1.28-1.61.28-.71.41-1.64.41-2.8,0-1.02-.14-1.87-.41-2.52-.28-.66-.71-1.17-1.28-1.53-.58-.37-1.32-.62-2.22-.75-.9-.13-1.99-.19-3.25-.19h-3.08v10.31h3.08Zm9.17,13.93l-7.52-11.02c-.21.02-.43.04-.65.04h-4.08v10.98h-3.54v-27.32h6.93c1.92,0,3.54.14,4.86.41,1.33.28,2.4.73,3.23,1.36.83.63,1.43,1.46,1.79,2.5.37,1.04.55,2.3.55,3.8,0,2.36-.46,4.15-1.37,5.37-.92,1.22-2.32,2.04-4.22,2.46l8.19,11.42h-4.17Zm-40.78-2.64c1.68,0,3.05-.21,4.09-.63,1.05-.42,1.87-1.07,2.46-1.97.59-.89,1-2.03,1.22-3.42.22-1.39.34-3.06.34-5s-.11-3.53-.34-4.92c-.22-1.39-.63-2.54-1.22-3.44-.59-.91-1.41-1.58-2.46-2.03-1.05-.45-2.41-.67-4.09-.67s-3.01.22-4.05.67c-1.05.45-1.87,1.12-2.46,2.03-.59.9-1,2.05-1.22,3.44-.23,1.39-.34,3.03-.34,4.92s.11,3.61.34,5c.22,1.39.63,2.53,1.22,3.42.59.89,1.41,1.55,2.46,1.97,1.05.42,2.4.63,4.05.63Zm0,3.03c-1.94,0-3.64-.22-5.09-.65-1.46-.43-2.69-1.18-3.68-2.24-1-1.06-1.74-2.5-2.24-4.31-.5-1.81-.75-4.09-.75-6.85s.25-5.03.75-6.83c.5-1.8,1.24-3.23,2.24-4.31,1-1.07,2.22-1.83,3.68-2.26,1.45-.44,3.15-.65,5.09-.65s3.65.21,5.12.65c1.47.43,2.7,1.19,3.68,2.26.98,1.07,1.72,2.51,2.22,4.31.5,1.8.75,4.08.75,6.83s-.25,5.04-.75,6.85c-.5,1.81-1.24,3.25-2.22,4.31-.98,1.06-2.21,1.81-3.68,2.24-1.47.44-3.17.65-5.12.65Zm-22-24.57h-7.95v24.17h-3.54v-24.17h-7.99v-3.15h19.48v3.15Zm-35.15,24.57c-1.89,0-3.59-.2-5.11-.59-1.52-.39-2.83-1.11-3.92-2.15-1.09-1.03-1.93-2.46-2.52-4.29-.59-1.82-.89-4.17-.89-7.03,0-2.62.3-4.83.91-6.63.6-1.8,1.45-3.25,2.56-4.35,1.1-1.1,2.45-1.89,4.04-2.36,1.59-.47,3.36-.71,5.33-.71,1.26,0,2.35.06,3.29.19.93.13,1.8.33,2.62.59v3.27c-.79-.29-1.66-.52-2.6-.69-.94-.17-2.02-.26-3.23-.26-1.55,0-2.9.18-4.05.55-1.16.37-2.11.98-2.88,1.83-.76.85-1.33,1.97-1.71,3.35-.38,1.38-.57,3.09-.57,5.13,0,2.18.18,3.97.53,5.37.35,1.4.89,2.52,1.61,3.35.72.83,1.64,1.41,2.76,1.73,1.11.33,2.44.49,3.95.49,1.29,0,2.43-.08,3.42-.25,1-.17,2.02-.44,3.07-.81v3.07c-.76.34-1.7.62-2.84.84-1.13.22-2.38.34-3.78.34Zm-74.07-3.5c1.42,0,2.71-.17,3.9-.49,1.18-.33,2.2-.89,3.05-1.69.85-.8,1.51-1.88,1.97-3.25.46-1.36.69-3.07.69-5.12,0-2.18-.24-3.95-.73-5.33-.49-1.38-1.15-2.45-2.01-3.23-.85-.78-1.86-1.31-3.03-1.59-1.17-.29-2.45-.43-3.84-.43h-4.25v21.14h4.25Zm.08-24.21c1.97,0,3.76.18,5.37.53,1.61.35,3,1.03,4.15,2.03,1.16.99,2.05,2.39,2.7,4.17.65,1.78.96,4.09.96,6.93,0,2.65-.32,4.85-.96,6.59-.64,1.74-1.54,3.14-2.7,4.19-1.15,1.05-2.54,1.79-4.15,2.22-1.61.43-3.41.65-5.37.65h-7.87v-27.32h7.87Zm-52.53,24.21c1.42,0,2.71-.17,3.89-.49,1.18-.33,2.2-.89,3.06-1.69.85-.8,1.51-1.88,1.97-3.25.46-1.36.69-3.07.69-5.12,0-2.18-.24-3.95-.73-5.33-.49-1.38-1.15-2.45-2.01-3.23-.85-.78-1.86-1.31-3.03-1.59-1.17-.29-2.45-.43-3.84-.43h-4.25v21.14h4.25Zm.08-24.21c1.97,0,3.76.18,5.37.53,1.61.35,3,1.03,4.15,2.03,1.16.99,2.05,2.39,2.7,4.17.64,1.78.96,4.09.96,6.93,0,2.65-.32,4.85-.96,6.59-.65,1.74-1.54,3.14-2.7,4.19-1.15,1.05-2.54,1.79-4.15,2.22-1.61.43-3.4.65-5.37.65h-7.88v-27.32h7.88Zm-101.51,27.71c-1.99,0-3.78-.2-5.35-.59-1.58-.39-2.92-1.11-4.02-2.15-1.1-1.03-1.95-2.46-2.54-4.29-.59-1.82-.89-4.17-.89-7.03,0-2.62.3-4.83.91-6.63.6-1.8,1.47-3.25,2.6-4.35,1.13-1.1,2.51-1.89,4.15-2.36,1.64-.47,3.48-.71,5.53-.71.63,0,1.28.02,1.95.08.67.05,1.32.12,1.95.21.63.09,1.23.2,1.79.34.57.13,1.04.28,1.43.43v3.15c-.92-.37-1.96-.64-3.13-.83-1.17-.18-2.44-.28-3.83-.28-1.53,0-2.88.16-4.08.47-1.19.32-2.2.88-3.03,1.69-.82.81-1.46,1.93-1.89,3.34-.44,1.42-.65,3.23-.65,5.43,0,2.34.21,4.22.61,5.65.41,1.43,1.01,2.54,1.83,3.32.81.79,1.8,1.32,2.97,1.6,1.17.28,2.53.41,4.08.41.63,0,1.37-.04,2.22-.12.85-.08,1.59-.21,2.22-.39v-8.46h-5.47v-2.99h8.86v13.9c-1,.31-2.19.58-3.56.8-1.38.22-2.93.34-4.67.34Z"/>
  <path class="cls-4" d="m545.65,449.24c1.68,0,3.05-.21,4.09-.63,1.05-.42,1.87-1.07,2.46-1.97.59-.89,1-2.03,1.22-3.42.22-1.39.34-3.06.34-5s-.11-3.53-.34-4.92c-.22-1.39-.63-2.54-1.22-3.44-.59-.91-1.41-1.58-2.46-2.03-1.05-.45-2.41-.67-4.09-.67s-3.01.22-4.05.67c-1.05.45-1.87,1.12-2.46,2.03-.59.9-1,2.05-1.22,3.44-.22,1.39-.34,3.03-.34,4.92s.11,3.61.34,5c.22,1.39.63,2.53,1.22,3.42.59.89,1.41,1.55,2.46,1.97,1.05.42,2.4.63,4.05.63m0,3.03c-1.94,0-3.64-.22-5.1-.65-1.46-.43-2.69-1.18-3.68-2.24-1-1.06-1.75-2.5-2.24-4.31-.5-1.81-.75-4.09-.75-6.85s.25-5.03.75-6.83c.5-1.8,1.24-3.23,2.24-4.31,1-1.07,2.22-1.83,3.68-2.26,1.45-.44,3.15-.65,5.1-.65s3.65.21,5.11.65c1.47.43,2.7,1.19,3.68,2.26.98,1.07,1.72,2.51,2.22,4.31.5,1.8.75,4.08.75,6.83s-.25,5.04-.75,6.85c-.5,1.81-1.24,3.25-2.22,4.31-.98,1.06-2.21,1.81-3.68,2.24-1.47.44-3.17.65-5.11.65Zm-122.68-3.03c1.68,0,3.04-.21,4.09-.63,1.05-.42,1.87-1.07,2.46-1.97.59-.89,1-2.03,1.22-3.42.22-1.39.34-3.06.34-5s-.11-3.53-.34-4.92c-.22-1.39-.63-2.54-1.22-3.44-.59-.91-1.41-1.58-2.46-2.03-1.05-.45-2.41-.67-4.09-.67s-3.01.22-4.05.67c-1.05.45-1.87,1.12-2.46,2.03-.59.9-1,2.05-1.22,3.44-.23,1.39-.34,3.03-.34,4.92s.11,3.61.34,5c.22,1.39.63,2.53,1.22,3.42.59.89,1.41,1.55,2.46,1.97,1.05.42,2.4.63,4.05.63Zm0,3.03c-1.94,0-3.64-.22-5.09-.65-1.46-.43-2.69-1.18-3.68-2.24-1-1.06-1.74-2.5-2.24-4.31-.5-1.81-.75-4.09-.75-6.85s.25-5.03.75-6.83c.5-1.8,1.24-3.23,2.24-4.31,1-1.07,2.22-1.83,3.68-2.26,1.45-.44,3.15-.65,5.09-.65s3.65.21,5.12.65c1.47.43,2.7,1.19,3.68,2.26.98,1.07,1.73,2.51,2.22,4.31.5,1.8.75,4.08.75,6.83s-.25,5.04-.75,6.85c-.5,1.81-1.24,3.25-2.22,4.31-.98,1.06-2.21,1.81-3.68,2.24-1.47.44-3.17.65-5.12.65Zm-35.97-3.03c1.68,0,3.05-.21,4.09-.63,1.05-.42,1.87-1.07,2.46-1.97.59-.89,1-2.03,1.22-3.42.22-1.39.34-3.06.34-5s-.11-3.53-.34-4.92c-.22-1.39-.63-2.54-1.22-3.44-.59-.91-1.41-1.58-2.46-2.03-1.05-.45-2.41-.67-4.09-.67s-3.01.22-4.05.67c-1.05.45-1.87,1.12-2.46,2.03-.59.9-1,2.05-1.22,3.44-.22,1.39-.34,3.03-.34,4.92s.11,3.61.34,5c.22,1.39.63,2.53,1.22,3.42.59.89,1.41,1.55,2.46,1.97,1.05.42,2.4.63,4.05.63Zm0,3.03c-1.94,0-3.64-.22-5.1-.65-1.46-.43-2.69-1.18-3.68-2.24-1-1.06-1.74-2.5-2.24-4.31-.5-1.81-.76-4.09-.76-6.85s.25-5.03.76-6.83c.5-1.8,1.24-3.23,2.24-4.31,1-1.07,2.22-1.83,3.68-2.26,1.45-.44,3.15-.65,5.1-.65s3.65.21,5.11.65c1.47.43,2.7,1.19,3.68,2.26.98,1.07,1.72,2.51,2.22,4.31.5,1.8.75,4.08.75,6.83s-.25,5.04-.75,6.85c-.5,1.81-1.24,3.25-2.22,4.31-.98,1.06-2.21,1.81-3.68,2.24-1.47.44-3.17.65-5.11.65Z"/>
</svg>